<svg xmlns="http://www.w3.org/2000/svg" width="58.244" height="40.623" viewBox="0 0 58.244 40.623"><defs><style>.a{fill:#daedf4;}</style></defs><path class="a" d="M57.812,96.342a1.722,1.722,0,0,0-2.433-.149l-5.082,4.5-14.355,12.7a4.892,4.892,0,0,1-3.24,1.226,5.012,5.012,0,0,1-1.036-.107l-8.2-1.818-9.908-2.186L6.6,108.971l-.994-.222a3.026,3.026,0,0,1-1.761-1.513,3.037,3.037,0,0,1-.336-1.39,3.284,3.284,0,0,1,.139-.912,3.251,3.251,0,0,1,.453-.889,2.929,2.929,0,0,1,1.084-.921,2.96,2.96,0,0,1,1.383-.336c.082,0,.164.007.245.007l7.161,1.546,16.609,3.592a6.586,6.586,0,0,0,5.78-1.5l10.212-9,10.427-9.184a3.321,3.321,0,0,0-1.5-5.731l-1.3-.279-9.472-2.048-12-2.589a6.584,6.584,0,0,0-5.78,1.505L10.938,93.186,6.119,97.419,1.926,101.1a4.51,4.51,0,0,0-.452.608,3.148,3.148,0,0,0-.206.272,6.573,6.573,0,0,0-.962,1.9,6.534,6.534,0,0,0,.946,5.812,6.385,6.385,0,0,0,1.456,1.463,6.29,6.29,0,0,0,1.9.955l.075.025,7.309,1.6,6.923,1.513,12.021,2.631a8.018,8.018,0,0,0,1.767.19,8.365,8.365,0,0,0,5.526-2.081l.411-.361,14.273-12.638,4.753-4.209A1.731,1.731,0,0,0,57.812,96.342Z" transform="translate(-0.003 -77.451)"/></svg>