<svg xmlns="http://www.w3.org/2000/svg" width="65.237" height="49.72" viewBox="0 0 65.237 49.72"><defs><style>.a{fill:#daedf4;}</style></defs><path class="a" d="M4.372,160.361c.293-.641.854-1.694,1.838-3.544.452-.852.958-1.792,1.475-2.755H3.15a3.15,3.15,0,0,0,0,6.3Z" transform="translate(0 -142.191)"/><path class="a" d="M456.222,154.063h-4.535c.52.964,1.023,1.9,1.475,2.755.984,1.85,1.543,2.9,1.838,3.544h1.222a3.15,3.15,0,1,0,0-6.3Z" transform="translate(-394.135 -142.191)"/><path class="a" d="M39.391,390.281a4.246,4.246,0,1,0,8.491,0v-4.016H39.391Z" transform="translate(-34.372 -344.807)"/><path class="a" d="M405.938,390.281a4.247,4.247,0,0,0,8.495,0v-4.016h-8.495Z" transform="translate(-354.215 -344.807)"/><path class="a" d="M71.875,79.85c.215.064-7.86-14.756-8.246-15.557a6.678,6.678,0,0,0-6-3.4H32.123a6.68,6.68,0,0,0-6,3.4c-.386.8-8.457,15.62-8.244,15.557,0,0-2.612,2.606-2.811,2.815a3.96,3.96,0,0,0-1.019,3.225V97.684c0,2.2.392,3.4,2.986,3.4h55.68c2.594,0,2.988-1.2,2.988-3.4V85.89a3.953,3.953,0,0,0-1.025-3.225C74.491,82.456,71.875,79.85,71.875,79.85ZM24.564,75.3s5.186-9.341,5.493-9.952a4.042,4.042,0,0,1,3.544-1.8H56.157a4.04,4.04,0,0,1,3.544,1.8C60.01,65.964,65.2,75.3,65.2,75.3a1.658,1.658,0,0,1-1.36,2.461H25.922A1.657,1.657,0,0,1,24.564,75.3ZM23.871,96.08a4.765,4.765,0,1,1,4.764-4.764A4.765,4.765,0,0,1,23.871,96.08Zm28.242,1.288a.631.631,0,0,1-.629.631H38.275a.631.631,0,0,1-.631-.631V91.548a.629.629,0,0,1,.631-.625H51.485a.628.628,0,0,1,.629.625v5.819ZM65.887,96.08a4.765,4.765,0,1,1,4.766-4.764A4.767,4.767,0,0,1,65.887,96.08Z" transform="translate(-12.261 -60.891)"/></svg>