<svg xmlns="http://www.w3.org/2000/svg" width="54.108" height="57.376" viewBox="0 0 54.108 57.376"><defs><style>.a{fill:#daedf4;}</style></defs><rect class="a" width="13.138" height="2.445" transform="translate(9.861 44.173)"/><rect class="a" width="17.964" height="2.445" transform="translate(9.861 34.256)"/><rect class="a" width="25.592" height="2.445" transform="translate(9.861 24.341)"/><rect class="a" width="12.062" height="2.445" transform="translate(23.391 14.425)"/><path class="a" d="M56.964,52.159a2.286,2.286,0,0,1-2.283,2.284H19.8a2.286,2.286,0,0,1-2.283-2.284V19.723H31.476a2.8,2.8,0,0,0,2.8-2.8V2.934H54.681a2.285,2.285,0,0,1,2.283,2.282V21.7L59.9,18.763V5.216A5.223,5.223,0,0,0,54.681,0H33.517a5.728,5.728,0,0,0-4.053,1.677l-13.2,13.2a5.73,5.73,0,0,0-1.679,4.053V52.159A5.224,5.224,0,0,0,19.8,57.376h34.88A5.224,5.224,0,0,0,59.9,52.159V38.127l-2.934,2.934v11.1ZM31.667,3.625V15.353c0,1.268-.494,1.762-1.762,1.762H18.176Z" transform="translate(-14.584)"/><path class="a" d="M437.629,178.878l-3.111-3.111a1.386,1.386,0,0,0-1.96,0l-2.017,2.017,5.072,5.071,2.016-2.017A1.386,1.386,0,0,0,437.629,178.878Z" transform="translate(-383.928 -155.71)"/><path class="a" d="M249.2,364.632l-1.729,6.8,6.8-1.729Z" transform="translate(-221.371 -323.77)"/><path class="a" d="M272.152,222.035l5.072,5.071,16.827-16.827-5.072-5.072Zm18.787-12.562-14.661,14.661-1.153-1.154,14.661-14.661Z" transform="translate(-243.288 -182.211)"/></svg>