<svg xmlns="http://www.w3.org/2000/svg" width="57.47" height="45.417" viewBox="0 0 57.47 45.417"><defs><style>.a{fill:#daedf4;}</style></defs><path class="a" d="M33.394,249.067H60.585V233.388H73.642v15.678h9.725V222.61H33.394Zm9.8-15.678h7.839v7.839H43.193Z" transform="translate(-29.646 -203.649)"/><path class="a" d="M301.39,368.565a1.2,1.2,0,0,0-1.194,1.195v3.98a1.194,1.194,0,0,0,2.388,0v-3.98A1.2,1.2,0,0,0,301.39,368.565Z" transform="translate(-266.5 -333.221)"/><path class="a" d="M153.644,53.689h-8.027L143.977,69.71h9.232Z" transform="translate(-127.816 -53.689)"/><path class="a" d="M291.564,69.71l-1.641-16.021H281.9l.436,16.021Z" transform="translate(-250.254 -53.689)"/><path class="a" d="M417.194,69.71l-3.748-16.021h-8.239L407.72,69.71Z" transform="translate(-359.724 -53.689)"/><path class="a" d="M11.987,53.689H3.748L0,69.71H9.475Z" transform="translate(0 -53.689)"/></svg>